<svg width="25" height="25" viewBox="0 0 25 25" fill="none" xmlns="http://www.w3.org/2000/svg">
<path opacity="0.4" d="M6.23998 16.5C6.34998 16.01 6.14998 15.31 5.79998 14.96L3.36998 12.53C2.60998 11.77 2.30998 10.96 2.52998 10.26C2.75998 9.56 3.46998 9.08 4.52998 8.9L7.64998 8.38C8.09998 8.3 8.64998 7.9 8.85998 7.49L10.58 4.04C11.08 3.05 11.76 2.5 12.5 2.5C13.24 2.5 13.92 3.05 14.42 4.04L16.14 7.49C16.27 7.75 16.54 8 16.83 8.17L6.05998 18.94C5.91998 19.08 5.67998 18.95 5.71998 18.75L6.23998 16.5Z" fill="#FF801A"/>
<path d="M19.2 14.96C18.84 15.32 18.64 16.01 18.76 16.5L19.45 19.51C19.74 20.76 19.56 21.7 18.94 22.15C18.69 22.33 18.39 22.42 18.04 22.42C17.53 22.42 16.93 22.23 16.27 21.84L13.34 20.1C12.88 19.83 12.12 19.83 11.66 20.1L8.72999 21.84C7.61999 22.49 6.66999 22.6 6.05999 22.15C5.82999 21.98 5.65999 21.75 5.54999 21.45L17.71 9.29C18.17 8.83 18.82 8.62 19.45 8.73L20.46 8.9C21.52 9.08 22.23 9.56 22.46 10.26C22.68 10.96 22.38 11.77 21.62 12.53L19.2 14.96Z" fill="#FF801A"/>
</svg>
